<svg width="40" height="35" viewBox="0 0 40 35" fill="none" xmlns="http://www.w3.org/2000/svg">
<path d="M27.5371 16.4044C27.5371 16.4044 32.0358 7.21868 40.0004 0C40.0004 0 32.2383 17.2818 40.0004 35C40.0004 35 30.806 28.6565 27.5371 27.123V16.4044Z" fill="#00FFC2"/>
<path d="M25.5391 16.5333C25.5391 16.5333 29.9095 7.60114 37.6561 0.582642C37.6561 0.582642 30.1079 17.3838 37.6561 34.6107C37.6561 34.6107 28.7175 28.4435 25.5391 26.9548V16.5333Z" fill="#09E1D3"/>
<path d="M23.541 16.5311C23.541 16.5311 27.7258 7.98131 35.1383 1.26416C35.1383 1.26416 27.9162 17.3456 35.1383 33.8338C35.1383 33.8338 26.5831 27.9304 23.541 26.5061V16.5311Z" fill="#13BEE6"/>
<path d="M21.4865 16.3794C22.2128 14.9716 26.083 7.80498 32.4406 2.04175C32.4406 2.04175 25.539 17.4034 32.4406 33.1531C32.4406 33.1531 25.1948 28.1537 21.9225 26.4323C21.7541 26.3433 21.6123 26.2056 21.5133 26.0346C21.4143 25.8637 21.362 25.6665 21.3623 25.4654V16.899C21.3622 16.7173 21.4049 16.5386 21.4865 16.3794Z" fill="#1E95FC"/>
<path d="M12.4613 16.4044C12.4613 16.4044 7.968 7.21868 0 0C0 0 7.76214 17.2818 0 35C0 35 9.19442 28.6565 12.4633 27.123L12.4613 16.4044Z" fill="#00FFC2"/>
<path d="M14.4608 16.5333C14.4608 16.5333 10.091 7.60114 2.34375 0.582642C2.34375 0.582642 9.89192 17.3838 2.34375 34.6107C2.34375 34.6107 11.2824 28.4435 14.4608 26.9548V16.5333Z" fill="#09E1D3"/>
<path d="M16.4583 16.5311C16.4583 16.5311 12.2735 7.98131 4.86035 1.26416C4.86035 1.26416 12.0825 17.3456 4.86035 33.8338C4.86035 33.8338 13.4163 27.9304 16.4583 26.5061V16.5311Z" fill="#13BEE6"/>
<path d="M18.4799 16.3158C17.6767 14.7678 13.8267 7.71971 7.55957 2.04175C7.55957 2.04175 14.4604 17.4034 7.55957 33.1531C7.55957 33.1531 14.6062 28.291 17.9392 26.5046C18.1486 26.3934 18.3249 26.2219 18.4483 26.0093C18.5717 25.7968 18.6373 25.5516 18.6378 25.3014V16.9669C18.638 16.739 18.5836 16.5148 18.4799 16.3158Z" fill="#1E95FC"/>
<path d="M20.0239 15.9444C20.2006 15.9444 20.3701 16.0196 20.495 16.1534C20.6199 16.2871 20.6901 16.4685 20.6901 16.6577V25.1483C20.6901 25.3375 20.6199 25.5189 20.495 25.6526C20.3701 25.7864 20.2006 25.8615 20.0239 25.8615H19.9787C19.802 25.8615 19.6326 25.7864 19.5076 25.6526C19.3827 25.5189 19.3125 25.3375 19.3125 25.1483V16.7083C19.3125 16.5055 19.3877 16.3111 19.5217 16.1677C19.6556 16.0243 19.8372 15.9437 20.0266 15.9437L20.0239 15.9444Z" fill="#1E95FC"/>
<path d="M19.3761 15.6817C19.3118 15.7096 19.2398 15.7094 19.1757 15.681C19.1115 15.6526 19.0604 15.5983 19.0333 15.53L18.2948 13.6272C18.2818 13.5934 18.2752 13.5572 18.2754 13.5206C18.2756 13.484 18.2826 13.4479 18.296 13.4142C18.3093 13.3806 18.3289 13.3502 18.3533 13.3247C18.3778 13.2992 18.4068 13.2792 18.4386 13.2659C18.5029 13.2379 18.5749 13.2382 18.6391 13.2666C18.7032 13.295 18.7543 13.3492 18.7815 13.4176L19.5199 15.3204C19.5329 15.3542 19.5395 15.3904 19.5393 15.427C19.5392 15.4635 19.5322 15.4997 19.5188 15.5333C19.5054 15.567 19.4859 15.5974 19.4614 15.6229C19.4369 15.6484 19.4079 15.6684 19.3761 15.6817Z" fill="#1E95FC"/>
<path d="M20.6239 15.6815C20.6884 15.7094 20.7604 15.7092 20.8247 15.6808C20.8889 15.6524 20.9402 15.5982 20.9675 15.5297L21.7086 13.624C21.7215 13.5902 21.7281 13.554 21.7278 13.5175C21.7276 13.481 21.7206 13.4448 21.7072 13.4112C21.6938 13.3776 21.6744 13.3472 21.6499 13.3217C21.6255 13.2962 21.5966 13.2762 21.5648 13.2627C21.5004 13.2348 21.4283 13.235 21.3641 13.2634C21.2998 13.2918 21.2486 13.346 21.2213 13.4145L20.4802 15.3201C20.4672 15.3539 20.4607 15.3902 20.4609 15.4267C20.4612 15.4632 20.4682 15.4993 20.4816 15.533C20.4949 15.5666 20.5144 15.597 20.5388 15.6225C20.5633 15.648 20.5922 15.668 20.6239 15.6815Z" fill="#1E95FC"/>
</svg>
