<svg width="193" height="224" viewBox="0 0 193 224" fill="none" xmlns="http://www.w3.org/2000/svg">
<path d="M96.6001 223.92C79.0801 223.92 65.3561 218.664 55.4281 208.152C45.5001 197.445 40.5361 182.845 40.5361 164.352V60.4004H55.1361V164.352C55.1361 178.952 58.7371 190.34 65.9401 198.516C73.3371 206.692 83.4601 210.78 96.3081 210.78C109.351 210.78 119.571 206.692 126.968 198.516C134.365 190.34 138.064 178.952 138.064 164.352V60.4004H152.664V164.352C152.664 182.651 147.603 197.153 137.48 207.86C127.552 218.567 113.925 223.92 96.6001 223.92Z" fill="#02E485"/>
<path d="M120 51C129.389 51 137 43.3888 137 34C137 24.6112 129.389 17 120 17C110.611 17 103 24.6112 103 34C103 43.3888 110.611 51 120 51Z" fill="#AFEAF0"/>
<path d="M122 50C129.18 50 135 44.4036 135 37.5C135 30.5964 129.18 25 122 25C114.82 25 109 30.5964 109 37.5C109 44.4036 114.82 50 122 50Z" fill="#D4F4F7"/>
<path d="M113.5 35.0124H127.472V31.9604H113.5V35.0124ZM125.344 24.4004V44.0004H128.648V24.4004H125.344ZM112.184 24.4004V44.0004H115.488V24.4004H112.184Z" fill="#0099F2"/>
<path d="M72 34C81.3888 34 89 26.3888 89 17C89 7.61116 81.3888 0 72 0C62.6112 0 55 7.61116 55 17C55 26.3888 62.6112 34 72 34Z" fill="#AFEAF0"/>
<path d="M74 33C81.1797 33 87 27.4036 87 20.5C87 13.5964 81.1797 8 74 8C66.8203 8 61 13.5964 61 20.5C61 27.4036 66.8203 33 74 33Z" fill="#D4F4F7"/>
<path d="M66.6205 17.2004C66.6205 15.8004 66.9284 14.5871 67.5444 13.5604C68.1794 12.5151 69.0004 11.7125 70.0084 11.1525C71.0354 10.5738 72.1454 10.2844 73.3404 10.2844C74.2734 10.2844 75.1135 10.4058 75.8605 10.6485C76.6075 10.8912 77.2795 11.2271 77.8765 11.6564C78.4925 12.0671 79.0245 12.5337 79.4725 13.0564V9.13645C78.6515 8.46445 77.7644 7.95115 76.8124 7.59645C75.8604 7.24175 74.6654 7.06445 73.2284 7.06445C71.7914 7.06445 70.4474 7.30715 69.1964 7.79245C67.9644 8.27775 66.8914 8.97775 65.9764 9.89245C65.0614 10.8071 64.3434 11.8897 63.8204 13.1404C63.3164 14.3724 63.0645 15.7257 63.0645 17.2004C63.0645 18.6751 63.3164 20.0378 63.8204 21.2885C64.3434 22.5205 65.0614 23.5935 65.9764 24.5085C66.8914 25.4235 67.9644 26.1235 69.1964 26.6085C70.4474 27.0935 71.7914 27.3364 73.2284 27.3364C74.6654 27.3364 75.8604 27.1595 76.8124 26.8045C77.7644 26.4495 78.6515 25.9365 79.4725 25.2645V21.3445C79.0245 21.8672 78.4925 22.3432 77.8765 22.7725C77.2795 23.1835 76.6075 23.5094 75.8605 23.7524C75.1135 23.9954 74.2734 24.1164 73.3404 24.1164C72.1454 24.1164 71.0354 23.8365 70.0084 23.2765C69.0004 22.6978 68.1794 21.8857 67.5444 20.8404C66.9284 19.7951 66.6205 18.5817 66.6205 17.2004Z" fill="#0099F2"/>
<path d="M87 87C96.3888 87 104 79.3888 104 70C104 60.6112 96.3888 53 87 53C77.6112 53 70 60.6112 70 70C70 79.3888 77.6112 87 87 87Z" fill="#AFEAF0"/>
<path d="M89 86C96.1797 86 102 80.4036 102 73.5C102 66.5964 96.1797 61 89 61C81.8203 61 76 66.5964 76 73.5C76 80.4036 81.8203 86 89 86Z" fill="#D4F4F7"/>
<path d="M80.5645 70.2005C80.5645 68.8565 80.8445 67.6615 81.4045 66.6165C81.9835 65.5525 82.7765 64.7215 83.7845 64.1245C84.7925 63.5275 85.9405 63.2285 87.2285 63.2285C88.5535 63.2285 89.7115 63.5275 90.7005 64.1245C91.7085 64.7215 92.4925 65.5525 93.0525 66.6165C93.6125 67.6615 93.8925 68.8565 93.8925 70.2005C93.8925 71.5445 93.6035 72.7485 93.0245 73.8125C92.4645 74.8575 91.6805 75.6795 90.6725 76.2765C89.6835 76.8735 88.5355 77.1725 87.2285 77.1725C85.9405 77.1725 84.7925 76.8735 83.7845 76.2765C82.7765 75.6795 81.9835 74.8575 81.4045 73.8125C80.8445 72.7485 80.5645 71.5445 80.5645 70.2005ZM77.0645 70.2005C77.0645 71.6565 77.3165 73.0095 77.8205 74.2605C78.3245 75.5115 79.0245 76.5935 79.9205 77.5085C80.8355 78.4235 81.9175 79.1415 83.1685 79.6645C84.4195 80.1685 85.7725 80.4205 87.2285 80.4205C88.7035 80.4205 90.0565 80.1685 91.2885 79.6645C92.5395 79.1415 93.6215 78.4235 94.5365 77.5085C95.4515 76.5935 96.1605 75.5115 96.6645 74.2605C97.1685 73.0095 97.4205 71.6565 97.4205 70.2005C97.4205 68.7255 97.1685 67.3725 96.6645 66.1405C96.1605 64.9085 95.4415 63.8445 94.5085 62.9485C93.5935 62.0335 92.5205 61.3245 91.2885 60.8205C90.0565 60.3165 88.7035 60.0645 87.2285 60.0645C85.7915 60.0645 84.4475 60.3165 83.1965 60.8205C81.9645 61.3245 80.8815 62.0335 79.9485 62.9485C79.0335 63.8445 78.3245 64.9085 77.8205 66.1405C77.3165 67.3725 77.0645 68.7255 77.0645 70.2005Z" fill="#0099F2"/>
<path d="M16 60H55.14V72H16V60Z" fill="#02E485"/>
<path d="M138.062 60H176.941V72H138.062V60Z" fill="#02E485"/>
<path d="M96.5 163C109.479 163 120 152.479 120 139.5C120 126.521 109.479 116 96.5 116C83.5213 116 73 126.521 73 139.5C73 152.479 83.5213 163 96.5 163Z" fill="#FF0000"/>
<path d="M101.5 156C109.508 156 116 149.508 116 141.5C116 133.492 109.508 127 101.5 127C93.4919 127 87 133.492 87 141.5C87 149.508 93.4919 156 101.5 156Z" fill="white" fill-opacity="0.34"/>
<path d="M103.5 154C111.508 154 118 147.508 118 139.5C118 131.492 111.508 125 103.5 125C95.4919 125 89 131.492 89 139.5C89 147.508 95.4919 154 103.5 154Z" fill="white" fill-opacity="0.34"/>
<path d="M188.641 193.345C187.07 196.066 183.4 198.02 176.999 198.531C170.692 199.034 162.355 198.069 152.498 195.656C132.817 190.839 107.646 180.395 81.7075 165.419C55.7695 150.444 34.139 133.867 20.1266 119.232C13.1084 111.901 8.10415 105.164 5.38675 99.4498C2.62885 93.6508 2.48555 89.4958 4.05685 86.7748C5.62815 84.0528 9.29835 82.0998 15.6993 81.5888C22.006 81.0848 30.343 82.0498 40.2002 84.4628C59.8814 89.2798 85.0525 99.7248 110.99 114.7C136.928 129.676 158.559 146.252 172.571 160.888C179.59 168.218 184.594 174.955 187.311 180.669C190.069 186.468 190.213 190.623 188.641 193.345Z" stroke="#0099F2" stroke-width="5"/>
<path d="M4.05685 193.345C5.62815 196.066 9.29835 198.02 15.6993 198.531C22.006 199.034 30.343 198.069 40.2002 195.656C59.8814 190.839 85.0525 180.395 110.99 165.419C136.928 150.444 158.559 133.867 172.571 119.232C179.59 111.901 184.594 105.164 187.311 99.4498C190.069 93.6508 190.213 89.4958 188.641 86.7748C187.07 84.0528 183.4 82.0998 176.999 81.5888C170.692 81.0848 162.355 82.0498 152.498 84.4628C132.817 89.2798 107.646 99.7248 81.7075 114.7C55.7695 129.676 34.139 146.252 20.1266 160.888C13.1084 168.218 8.10405 174.955 5.38675 180.669C2.62885 186.468 2.48555 190.623 4.05685 193.345Z" stroke="#0099F2" stroke-width="5"/>
</svg>
