<svg width="1160" height="640" viewBox="0 0 1160 640" fill="none" xmlns="http://www.w3.org/2000/svg">
<mask id="mask0_1431_5471" style="mask-type:alpha" maskUnits="userSpaceOnUse" x="0" y="0" width="1160" height="640">
<rect width="1160" height="640" fill="#1E95FC"/>
</mask>
<g mask="url(#mask0_1431_5471)">
<rect width="1160" height="640" fill="#1E95FC"/>
<path d="M160.21 381.199C-35.2581 466.244 -129.574 583.95 -171 669.921L1153.84 687.438C1204.52 642.137 1345.45 587.408 1351.72 581.126C1358 574.845 1381.89 302.678 1264.85 162.547C1100.15 45.9727 1036.1 305.836 816.5 396.438C495.079 529.048 404.546 274.893 160.21 381.199Z" fill="#13BEE6"/>
<path d="M80 708.354L232.5 756.354L1245 730.852C1294.67 651.019 1439.2 493.452 1456 479.852C1472.8 466.252 1370.5 415.435 1280 396.435C1152 29.4365 1067 583.354 746 470.354C397.999 347.849 180.5 588.354 80 708.354Z" fill="#09E1D3"/>
<path d="M545 505.675C424.346 556.892 383.091 596.29 301 718C432.5 814.5 868.617 728.731 944.373 738.754C1020.13 748.778 1157.01 716.087 1215.98 698.489C1286.54 650.485 1160.77 593.662 1233 463.5C1387 186 845.081 445.58 980.863 582.326C1056.5 658.5 750.606 418.396 545 505.675Z" fill="#00FFC2"/>
</g>
</svg>
