<svg width="24" height="24" viewBox="0 0 24 24" fill="none" xmlns="http://www.w3.org/2000/svg">
<path d="M11.2511 19.6659C11.2758 19.6926 11.3018 19.7178 11.3289 19.7418C11.3409 19.7522 11.3534 19.7614 11.3656 19.7712C11.381 19.7837 11.3961 19.7965 11.4121 19.808C11.4271 19.8188 11.4426 19.8282 11.458 19.838C11.4722 19.8472 11.4862 19.8569 11.5009 19.8653C11.5166 19.8745 11.5328 19.8821 11.5489 19.8903C11.5641 19.898 11.5791 19.9062 11.5947 19.9131C11.6104 19.9201 11.6264 19.9258 11.6424 19.9319C11.6591 19.9384 11.6754 19.9452 11.6924 19.9508C11.7084 19.9559 11.7246 19.9598 11.7407 19.9641C11.7581 19.9688 11.7752 19.9741 11.7929 19.9779C11.8115 19.9818 11.8302 19.9842 11.8489 19.9871C11.8644 19.9894 11.8796 19.9926 11.8954 19.9943C11.9301 19.9979 11.965 20 11.9999 20C12.0347 20 12.0696 19.998 12.1043 19.9943C12.1202 19.9926 12.1356 19.9894 12.1513 19.987C12.1698 19.9842 12.1883 19.9818 12.2067 19.9779C12.2247 19.9741 12.2423 19.9687 12.2599 19.9639C12.2756 19.9596 12.2915 19.9559 12.3071 19.9508C12.3245 19.9451 12.3412 19.9381 12.3582 19.9316C12.3738 19.9255 12.3896 19.92 12.405 19.9132C12.4208 19.9061 12.436 19.8979 12.4515 19.89C12.4674 19.8819 12.4834 19.8743 12.4989 19.8653C12.5137 19.8568 12.5277 19.8472 12.542 19.8379C12.5574 19.828 12.5729 19.8187 12.5878 19.8079C12.6035 19.7967 12.6182 19.7841 12.6332 19.772C12.6459 19.7618 12.6588 19.7524 12.6711 19.7416C12.6968 19.7188 12.7215 19.6947 12.7451 19.6695C12.7463 19.6683 12.7475 19.6673 12.7486 19.6661L17.6899 14.3462C18.1034 13.901 18.1034 13.1793 17.6899 12.734C17.2764 12.2889 16.606 12.2888 16.1925 12.734L13.0587 16.1079V2.14001C13.0587 1.51042 12.5846 1 11.9999 1C11.4151 1 10.941 1.51042 10.941 2.14001V16.1078L7.80751 12.734C7.39407 12.2888 6.72363 12.2888 6.31013 12.734C5.89662 13.1793 5.89662 13.901 6.31013 14.3462L11.2511 19.6659Z" fill="#101010"/>
<path d="M22.9091 12C22.3066 12 21.8182 12.5037 21.8182 13.125V21.75H2.18182V13.125C2.18182 12.5037 1.69338 12 1.09091 12C0.488436 12 0 12.5037 0 13.125V22.875C0 23.4963 0.488436 24 1.09091 24H22.9091C23.5116 24 24 23.4963 24 22.875V13.125C24 12.5037 23.5116 12 22.9091 12Z" fill="#101010"/>
</svg>
