<svg width="20" height="20" viewBox="0 0 20 20" fill="none" xmlns="http://www.w3.org/2000/svg">
<path d="M14.1665 1.66652C15.2707 1.66982 16.3286 2.10989 17.1094 2.89064C17.8901 3.67138 18.3302 4.72935 18.3335 5.83348V14.1665C18.3302 15.2707 17.8901 16.3286 17.1094 17.1094C16.3286 17.8901 15.2707 18.3302 14.1665 18.3335H5.83348C4.72935 18.3302 3.67138 17.8901 2.89064 17.1094C2.10989 16.3286 1.66982 15.2707 1.66652 14.1665V5.83348C1.66982 4.72935 2.10989 3.67138 2.89064 2.89064C3.67138 2.10989 4.72935 1.66982 5.83348 1.66652H14.1665ZM14.1665 0H5.83348C2.625 0 0 2.625 0 5.83348V14.1665C0 17.375 2.625 20 5.83348 20H14.1665C17.375 20 20 17.375 20 14.1665V5.83348C20 2.625 17.375 0 14.1665 0Z" fill="#147FC3"/>
<path d="M15.4165 5.8335C15.1693 5.8335 14.9276 5.76019 14.7221 5.62283C14.5165 5.48548 14.3563 5.29026 14.2617 5.06185C14.1671 4.83344 14.1423 4.58211 14.1905 4.33963C14.2388 4.09716 14.3578 3.87443 14.5326 3.69961C14.7075 3.5248 14.9302 3.40575 15.1727 3.35752C15.4151 3.30928 15.6665 3.33404 15.8949 3.42865C16.1233 3.52326 16.3185 3.68347 16.4559 3.88903C16.5932 4.0946 16.6665 4.33627 16.6665 4.5835C16.6669 4.74775 16.6348 4.91045 16.5721 5.06227C16.5094 5.21408 16.4173 5.35202 16.3012 5.46817C16.185 5.58431 16.0471 5.67637 15.8953 5.73906C15.7435 5.80176 15.5808 5.83385 15.4165 5.8335ZM10 6.66653C10.6593 6.66653 11.3038 6.86204 11.852 7.22833C12.4002 7.59461 12.8274 8.11523 13.0797 8.72435C13.332 9.33346 13.3981 10.0037 13.2694 10.6503C13.1408 11.297 12.8233 11.8909 12.3571 12.3571C11.8909 12.8233 11.297 13.1408 10.6503 13.2694C10.0037 13.3981 9.33345 13.3321 8.72433 13.0798C8.11522 12.8274 7.5946 12.4002 7.22831 11.852C6.86203 11.3038 6.66652 10.6593 6.66652 10C6.66747 9.11621 7.01897 8.26888 7.64392 7.64393C8.26886 7.01899 9.1162 6.66748 10 6.66653ZM10 5.00001C9.0111 5.00001 8.0444 5.29326 7.22215 5.84267C6.39991 6.39207 5.75904 7.17297 5.3806 8.0866C5.00217 9.00023 4.90315 10.0056 5.09608 10.9755C5.289 11.9454 5.76521 12.8363 6.46447 13.5355C7.16373 14.2348 8.05465 14.711 9.02455 14.9039C9.99446 15.0969 10.9998 14.9979 11.9134 14.6194C12.827 14.241 13.6079 13.6001 14.1573 12.7779C14.7068 11.9556 15 10.9889 15 10C15 8.67393 14.4732 7.40216 13.5355 6.46448C12.5979 5.5268 11.3261 5.00001 10 5.00001Z" fill="#147FC3"/>
</svg>
