<svg width="20" height="19" viewBox="0 0 20 19" fill="none" xmlns="http://www.w3.org/2000/svg">
<path d="M18.4143 1.49956C18.4091 1.49471 18.4039 1.48985 18.3985 1.4851C16.4825 -0.316069 13.4287 -0.501924 11.2867 1.05386C11.0723 1.20913 10.8996 1.35032 10.7431 1.49811C10.7386 1.50238 10.7342 1.50665 10.7298 1.51102L7.30186 4.75824C7.00158 5.04266 7.00158 5.5038 7.30196 5.78812C7.60234 6.07263 8.08921 6.07253 8.38929 5.78802L11.83 2.52866C11.8336 2.52526 11.837 2.52186 11.8406 2.51847C11.9455 2.42039 12.0667 2.32232 12.2215 2.21026C13.7601 1.0928 15.9543 1.22971 17.3259 2.52886C17.3304 2.53313 17.335 2.5374 17.3396 2.54158C18.8417 3.97734 18.8375 6.30354 17.3269 7.73494L13.8864 10.994C13.5861 11.2784 13.5861 11.7396 13.8865 12.0239C14.0367 12.166 14.2334 12.2371 14.4302 12.2371C14.6269 12.2371 14.8238 12.166 14.9739 12.0238L18.4145 8.76472C20.5287 6.76138 20.5287 3.50222 18.4143 1.49956Z" fill="#101010"/>
<path d="M11.6083 13.1507L8.16969 16.4077C8.16293 16.4142 8.15616 16.4209 8.1496 16.4276C7.76946 16.7818 7.3234 17.0538 6.82249 17.2368C5.38773 17.7629 3.7584 17.4378 2.67242 16.4091C1.15841 14.9735 1.15841 12.6376 2.67242 11.2025L6.11265 7.94526C6.25679 7.80863 6.33788 7.62336 6.33788 7.43013V7.42886C6.33788 7.02657 5.99372 6.70117 5.56899 6.70117C5.35011 6.70117 5.15256 6.78808 5.01252 6.92723L1.58479 10.1726C-0.528127 12.1757 -0.528332 15.4351 1.58459 17.4387C2.61952 18.4191 4.00691 18.9417 5.41993 18.9417C6.07748 18.9416 6.74078 18.8284 7.3764 18.5954C8.08604 18.3365 8.71817 17.9478 9.25516 17.4403C9.26295 17.433 9.27054 17.4254 9.27802 17.4178L12.6957 14.1806C12.996 13.8961 12.996 13.4351 12.6956 13.1507C12.3955 12.8664 11.9087 12.8664 11.6083 13.1507Z" fill="#101010"/>
<path d="M6.06405 13.1958C6.21424 13.3381 6.41098 13.4092 6.60782 13.4092C6.80455 13.4092 7.00139 13.3381 7.15148 13.1959L13.9346 6.77155C14.235 6.48713 14.235 6.02599 13.9347 5.74168C13.6344 5.45717 13.1476 5.45727 12.8474 5.74158L6.06426 12.166C5.76377 12.4503 5.76377 12.9114 6.06405 13.1958Z" fill="#101010"/>
</svg>
