<svg width="1160" height="540" viewBox="0 0 1160 540" fill="none" xmlns="http://www.w3.org/2000/svg">
<mask id="mask0_781_1721" style="mask-type:alpha" maskUnits="userSpaceOnUse" x="0" y="0" width="1160" height="540">
<rect width="1160" height="540" fill="#1E95FC"/>
</mask>
<g mask="url(#mask0_781_1721)">
<rect width="1160" height="540" fill="#1E95FC"/>
<path d="M160.21 281.199C-35.2581 366.244 -129.574 483.95 -171 569.921L1153.84 587.438C1204.52 542.137 1345.45 487.408 1351.72 481.126C1358 474.845 1381.89 202.678 1264.85 62.5473C1100.15 -54.0273 1036.1 205.836 816.5 296.438C495.079 429.048 404.546 174.893 160.21 281.199Z" fill="#13BEE6"/>
<path d="M80 608.354L232.5 656.354L1245 630.852C1294.67 551.019 1439.2 393.452 1456 379.852C1472.8 366.252 1370.5 315.435 1280 296.435C1152 -70.5635 1067 483.354 746 370.354C397.999 247.849 180.5 488.354 80 608.354Z" fill="#09E1D3"/>
<path d="M545 405.675C424.346 456.892 383.091 496.29 301 618C432.5 714.5 868.617 628.731 944.373 638.754C1020.13 648.778 1157.01 616.087 1215.98 598.489C1286.54 550.485 1160.77 493.662 1233 363.5C1387 86.0001 845.081 345.58 980.863 482.326C1056.5 558.5 750.606 318.396 545 405.675Z" fill="#00FFC2"/>
</g>
</svg>
