<svg width="2085" height="508" viewBox="0 0 2085 508" fill="none" xmlns="http://www.w3.org/2000/svg">
<path d="M519.5 381.5C369.013 355.347 81.8492 133.092 0 0H1221.2L1983.5 8.39233e-05C2185.78 4.58955 2021.5 190.329 2021.5 190.329C1910 363 1738 409.5 1530 445.5C1754 373 1517.64 245.244 1389.68 223.854C1230.24 197.2 1038.41 270.925 953 322C865.333 374.427 682.042 409.748 519.5 381.5Z" fill="white"/>
<path d="M1451.04 475.992C1451.35 476.758 1451.87 477.419 1452.54 477.895C1453.22 478.37 1454.02 478.641 1454.84 478.673L1531.16 481.782L1531.17 481.788C1532.06 481.819 1532.93 481.577 1533.66 481.096C1534.4 480.614 1534.98 479.916 1535.3 479.096C1535.63 478.277 1535.7 477.376 1535.5 476.517C1535.29 475.658 1534.83 474.883 1534.17 474.298L1534.11 474.248L1515.65 455.008C1515.27 454.687 1514.81 454.473 1514.32 454.385C1513.83 454.298 1513.32 454.341 1512.85 454.511L1462.28 472.832C1462.13 472.893 1461.96 472.925 1461.8 472.923C1461.63 472.921 1461.47 472.887 1461.31 472.822C1461.16 472.757 1461.02 472.663 1460.91 472.544C1460.79 472.426 1460.7 472.286 1460.64 472.132C1460.58 471.978 1460.54 471.814 1460.55 471.648C1460.55 471.482 1460.58 471.318 1460.65 471.165C1460.71 471.013 1460.81 470.875 1460.92 470.758C1461.04 470.642 1461.18 470.551 1461.34 470.489L1510.48 448.664C1510.94 448.461 1511.33 448.141 1511.63 447.737C1511.92 447.333 1512.11 446.859 1512.16 446.362L1512.13 419.686C1512.14 419.649 1512.14 419.615 1512.14 419.579C1512.26 417.832 1511.39 416.191 1509.81 415.433L1509.65 415.364C1508.84 415.013 1507.94 414.915 1507.08 415.081C1506.21 415.247 1505.41 415.67 1504.79 416.295L1451.94 471.413C1451.36 472.008 1450.97 472.756 1450.81 473.569C1450.65 474.381 1450.73 475.223 1451.04 475.992V475.992Z" fill="#FCFCFC"/>
</svg>
