<svg width="27" height="16" viewBox="0 0 27 16" fill="none" xmlns="http://www.w3.org/2000/svg">
<path fill-rule="evenodd" clip-rule="evenodd" d="M26.3644 1.11111C26.5647 0.484444 26.3644 0.0288887 25.4785 0.0288887H22.5327C21.7896 0.0288887 21.4465 0.427778 21.2462 0.854444C21.2462 0.854444 19.7308 4.49889 17.6147 6.86167C16.9285 7.545 16.614 7.77278 16.2422 7.77278C16.042 7.77278 15.7843 7.545 15.7843 6.91889V1.08167C15.7843 0.341667 15.556 0 14.9265 0H10.2938C9.83589 0 9.55014 0.341667 9.55014 0.683334C9.55014 1.395 10.6082 1.56611 10.7224 3.55889V7.88889C10.7224 8.82833 10.5536 9 10.179 9C9.17833 9 6.74776 5.32722 5.28976 1.14222C5.00626 0.313333 4.71826 0 3.97463 0H1.00069C0.142875 0 0 0.398333 0 0.825556C0 1.59444 1.00069 5.46611 4.66088 10.5906C7.09145 14.0906 10.5514 15.9717 13.6682 15.9717C15.556 15.9717 15.7843 15.5444 15.7843 14.8328V12.185C15.7843 11.3311 15.9559 11.1889 16.5566 11.1889C16.9853 11.1889 17.7576 11.4161 19.5019 13.0961C21.5033 15.0889 21.8464 16 22.9618 16H25.9071C26.7649 16 27.1654 15.5728 26.9365 14.7472C26.6794 13.9217 25.7068 12.7261 24.4485 11.3028C23.7623 10.5061 22.7329 9.62333 22.4185 9.19611C21.9898 8.62667 22.104 8.39889 22.4185 7.88667C22.3898 7.88667 25.9932 2.81889 26.3644 1.10889" fill="#101010"/>
</svg>
